<svg id="Layer_1" data-name="Layer 1" xmlns="http://www.w3.org/2000/svg" viewBox="0 0 100 100"><defs><style>.cls-1{fill:#fff;}.cls-2{fill:#2d1f5f;}.cls-3{fill:#ffdee2;}.cls-4{fill:none;}.cls-5{fill:#1c6bba;}.cls-6{fill:#4cb8f2;}</style></defs><path class="cls-1" d="M57.18,65H18.82a8,8,0,0,1-7.43-11l3.32-8.31A4,4,0,0,0,15,44.23V26.41A19.27,19.27,0,0,1,32.52,7.06a19,19,0,0,1,13.16,4A16,16,0,0,1,61,27V44.23a4,4,0,0,0,.29,1.49L64.61,54A8,8,0,0,1,57.18,65Z"/><path class="cls-2" d="M57.18,67H18.82A10,10,0,0,1,9.53,53.29L12.86,45a2,2,0,0,0,.14-.74V26.41A21.31,21.31,0,0,1,32.37,5.06a21,21,0,0,1,14,4A18,18,0,0,1,63,27V44.23a2,2,0,0,0,.14.74l3.33,8.32A10,10,0,0,1,57.18,67ZM34,9c-.44,0-.87,0-1.3.05A17.29,17.29,0,0,0,17,26.41V44.23a5.86,5.86,0,0,1-.43,2.23l-3.32,8.31A6,6,0,0,0,18.82,63H57.18a6,6,0,0,0,5.57-8.23l-3.32-8.31A5.86,5.86,0,0,1,59,44.23V27A14,14,0,0,0,45.59,13a2,2,0,0,1-1.14-.42A17,17,0,0,0,34,9Z"/><path class="cls-1" d="M43,49l2.14,7.15A4,4,0,0,0,49,59h4A16,16,0,0,1,69,75V89a4,4,0,0,1-4,4H11a4,4,0,0,1-4-4V75A16,16,0,0,1,23,59h4a4,4,0,0,0,3.84-2.85L33,49Z"/><rect class="cls-3" x="31" y="51" width="14" height="11"/><path class="cls-4" d="M47.66,59.39a13.67,13.67,0,0,1-19.32,0"/><path class="cls-2" d="M21,95a2,2,0,0,1-2-2V84a2,2,0,0,1,4,0v9A2,2,0,0,1,21,95Z"/><path class="cls-2" d="M38,65.38A15.57,15.57,0,0,1,26.93,60.8,2,2,0,0,1,29.76,58a11.67,11.67,0,0,0,16.48,0,2,2,0,0,1,2.83,2.82A15.57,15.57,0,0,1,38,65.38Z"/><path class="cls-2" d="M65,95H11a6,6,0,0,1-6-6V75A18,18,0,0,1,23,57h4a2,2,0,0,0,1.92-1.43l2.14-7.14A2,2,0,0,1,33,47H43a2,2,0,0,1,1.92,1.43l2.14,7.14A2,2,0,0,0,49,57h4A18,18,0,0,1,71,75V89A6,6,0,0,1,65,95ZM23,61A14,14,0,0,0,9,75V89a2,2,0,0,0,2,2H65a2,2,0,0,0,2-2V75A14,14,0,0,0,53,61H49a6,6,0,0,1-5.75-4.28L41.51,51h-7l-1.72,5.72A6,6,0,0,1,27,61Z"/><path class="cls-3" d="M23,28v8A15,15,0,0,0,38,51h0A15,15,0,0,0,53,36V28a2,2,0,0,0-2-2H46a8,8,0,0,1-8-8h0a8,8,0,0,1-8,8H25A2,2,0,0,0,23,28Z"/><path class="cls-2" d="M38,53A17,17,0,0,1,21,36V28a4,4,0,0,1,4-4h5a6,6,0,0,0,6-6,2,2,0,0,1,4,0,6,6,0,0,0,6,6h5a4,4,0,0,1,4,4v8A17,17,0,0,1,38,53ZM25,28v8a13,13,0,0,0,26,0V28H46a10,10,0,0,1-8-4,10,10,0,0,1-8,4Z"/><rect class="cls-5" x="45" y="85" width="48" height="8" rx="4"/><rect class="cls-6" x="49" y="59" width="40" height="26" rx="4"/><path class="cls-2" d="M89,95H49a6,6,0,0,1,0-12H89a6,6,0,0,1,0,12ZM49,87a2,2,0,0,0,0,4H89a2,2,0,0,0,0-4Z"/><path class="cls-2" d="M85,87H53a6,6,0,0,1-6-6V63a6,6,0,0,1,6-6H85a6,6,0,0,1,6,6V81A6,6,0,0,1,85,87ZM53,61a2,2,0,0,0-2,2V81a2,2,0,0,0,2,2H85a2,2,0,0,0,2-2V63a2,2,0,0,0-2-2Z"/><path class="cls-2" d="M61,78a2,2,0,0,1-1.41-.59l-4-4a2,2,0,0,1,0-2.82l4-4a2,2,0,0,1,2.82,2.82L59.83,72l2.58,2.59A2,2,0,0,1,61,78Z"/><path class="cls-2" d="M77,78a2,2,0,0,1-1.41-3.41L78.17,72l-2.58-2.59a2,2,0,0,1,2.82-2.82l4,4a2,2,0,0,1,0,2.82l-4,4A2,2,0,0,1,77,78Z"/><path class="cls-2" d="M67,78a2,2,0,0,1-1.79-2.89l4-8a2,2,0,1,1,3.58,1.78l-4,8A2,2,0,0,1,67,78Z"/></svg>