<svg id="Layer_1" data-name="Layer 1" xmlns="http://www.w3.org/2000/svg" viewBox="0 0 100 100"><defs><style>.cls-1{fill:#fff;}.cls-2{fill:#ffdee2;}.cls-3{fill:#2d1f5f;}.cls-4{fill:#1c6bba;}.cls-5{fill:#4cb8f2;}</style></defs><path class="cls-1" d="M43,49l2.14,7.15A4,4,0,0,0,49,59h4A16,16,0,0,1,69,75V89a4,4,0,0,1-4,4H11a4,4,0,0,1-4-4V75A16,16,0,0,1,23,59h4a4,4,0,0,0,3.84-2.85L33,49"/><rect class="cls-2" x="31" y="50" width="14" height="12"/><path class="cls-1" d="M35,7h6A16,16,0,0,1,57,23v7a0,0,0,0,1,0,0H19a0,0,0,0,1,0,0V23A16,16,0,0,1,35,7Z"/><rect class="cls-2" x="15" y="30" width="46" height="10" rx="5"/><path class="cls-3" d="M65,95H11a6,6,0,0,1-6-6V75A18,18,0,0,1,23,57h4a2,2,0,0,0,1.92-1.42l2.14-7.15a2,2,0,1,1,3.84,1.14l-2.15,7.15A6,6,0,0,1,27,61H23A14,14,0,0,0,9,75V89a2,2,0,0,0,2,2H65a2,2,0,0,0,2-2V75A14,14,0,0,0,53,61H49a6,6,0,0,1-5.75-4.28l-2.15-7.15a2,2,0,1,1,3.84-1.14l2.14,7.14A2,2,0,0,0,49,57h4A18,18,0,0,1,71,75V89A6,6,0,0,1,65,95Z"/><path class="cls-3" d="M57,32H19a2,2,0,0,1-2-2V23A18,18,0,0,1,35,5h6A18,18,0,0,1,59,23v7A2,2,0,0,1,57,32ZM21,28H55V23A14,14,0,0,0,41,9H35A14,14,0,0,0,21,23Z"/><path class="cls-3" d="M56,42H20a7,7,0,0,1,0-14H56a7,7,0,0,1,0,14ZM20,32a3,3,0,0,0,0,6H56a3,3,0,0,0,0-6Z"/><path class="cls-3" d="M21,95a2,2,0,0,1-2-2V84a2,2,0,0,1,4,0v9A2,2,0,0,1,21,95Z"/><path class="cls-3" d="M38,65.39A15.55,15.55,0,0,1,26.93,60.8,2,2,0,0,1,29.76,58a11.66,11.66,0,0,0,16.48,0,2,2,0,0,1,2.83,2.82A15.55,15.55,0,0,1,38,65.39Z"/><rect class="cls-4" x="45" y="85" width="48" height="8" rx="4"/><rect class="cls-5" x="49" y="59" width="40" height="26" rx="4"/><path class="cls-3" d="M89,95H49a6,6,0,0,1,0-12H89a6,6,0,0,1,0,12ZM49,87a2,2,0,0,0,0,4H89a2,2,0,0,0,0-4Z"/><path class="cls-3" d="M85,87H53a6,6,0,0,1-6-6V63a6,6,0,0,1,6-6H85a6,6,0,0,1,6,6V81A6,6,0,0,1,85,87ZM53,61a2,2,0,0,0-2,2V81a2,2,0,0,0,2,2H85a2,2,0,0,0,2-2V63a2,2,0,0,0-2-2Z"/><path class="cls-3" d="M61,78a2,2,0,0,1-1.41-.59l-4-4a2,2,0,0,1,0-2.82l4-4a2,2,0,0,1,2.82,2.82L59.83,72l2.58,2.59A2,2,0,0,1,61,78Z"/><path class="cls-3" d="M77,78a2,2,0,0,1-1.41-3.41L78.17,72l-2.58-2.59a2,2,0,0,1,2.82-2.82l4,4a2,2,0,0,1,0,2.82l-4,4A2,2,0,0,1,77,78Z"/><path class="cls-3" d="M67,78a2,2,0,0,1-1.79-2.89l4-8a2,2,0,1,1,3.58,1.78l-4,8A2,2,0,0,1,67,78Z"/><path class="cls-2" d="M31.26,24.3h0a18.15,18.15,0,0,0,13.48,0h0a6,6,0,0,1,6,.89h0A6,6,0,0,1,53,29.89V36A15,15,0,0,1,38,51h0A15,15,0,0,1,23,36V29.89a6,6,0,0,1,2.26-4.7h0A6,6,0,0,1,31.26,24.3Z"/><path class="cls-3" d="M38,53A17,17,0,0,1,21,36V29.89a8,8,0,0,1,11-7.44h0a16.16,16.16,0,0,0,12,0,8,8,0,0,1,11,7.44V36A17,17,0,0,1,38,53ZM29,25.87a4,4,0,0,0-4,4V36a13,13,0,0,0,26,0V29.89a4,4,0,0,0-5.51-3.73,20.08,20.08,0,0,1-15,0h0A4,4,0,0,0,29,25.87Z"/></svg>